<svg width="1440" height="935" viewBox="0 0 1440 935" fill="none" xmlns="http://www.w3.org/2000/svg">
<rect width="1440" height="935" fill="#222A36"/>
<path d="M582 181H432C415.431 181 402 194.431 402 211V271C402 287.569 415.431 301 432 301H582C598.569 301 612 287.569 612 271V211C612 194.431 598.569 181 582 181Z" stroke="#323C4B" stroke-width="2" stroke-linecap="round" stroke-linejoin="round"/>
<path d="M627 361H387C370.431 361 357 374.431 357 391V451C357 467.569 370.431 481 387 481H627C643.569 481 657 467.569 657 451V391C657 374.431 643.569 361 627 361Z" stroke="#323C4B" stroke-width="2" stroke-linecap="round" stroke-linejoin="round"/>
<path d="M417 421H447M507 421H597" stroke="#323C4B" stroke-width="2" stroke-linecap="round" stroke-linejoin="round"/>
<path d="M787.4 627.591L754.514 655L787.4 682.409C787.868 682.8 788.204 683.325 788.363 683.914C788.522 684.502 788.496 685.125 788.288 685.698C788.081 686.271 787.702 686.767 787.203 687.117C786.704 687.467 786.11 687.656 785.5 687.656C784.805 687.659 784.131 687.415 783.6 686.966L747.975 657.279C747.641 657 747.373 656.651 747.189 656.258C747.005 655.864 746.909 655.435 746.909 655C746.909 654.565 747.005 654.136 747.189 653.742C747.373 653.349 747.641 653 747.975 652.722L783.6 623.034C784.208 622.564 784.974 622.348 785.738 622.431C786.502 622.514 787.204 622.891 787.697 623.481C788.189 624.071 788.433 624.829 788.378 625.596C788.322 626.362 787.972 627.078 787.4 627.591ZM918.025 652.722L882.4 623.034C882.103 622.767 881.756 622.563 881.378 622.434C881.001 622.305 880.601 622.253 880.203 622.282C879.805 622.31 879.417 622.419 879.062 622.601C878.707 622.783 878.392 623.035 878.136 623.342C877.881 623.648 877.69 624.003 877.574 624.385C877.459 624.767 877.422 625.168 877.465 625.565C877.509 625.961 877.631 626.345 877.826 626.693C878.021 627.042 878.284 627.347 878.6 627.591L911.486 655L878.6 682.409C878.284 682.653 878.021 682.958 877.826 683.307C877.631 683.655 877.509 684.039 877.465 684.435C877.422 684.832 877.459 685.233 877.574 685.615C877.69 685.997 877.881 686.352 878.136 686.658C878.392 686.965 878.707 687.217 879.062 687.399C879.417 687.581 879.805 687.69 880.203 687.718C880.601 687.747 881.001 687.695 881.378 687.566C881.756 687.437 882.103 687.233 882.4 686.966L918.025 657.279C918.359 657 918.627 656.651 918.811 656.258C918.995 655.864 919.091 655.435 919.091 655C919.091 654.565 918.995 654.136 918.811 653.742C918.627 653.349 918.359 653 918.025 652.722ZM857.767 586.897C857.4 586.763 857.011 586.703 856.621 586.72C856.232 586.737 855.849 586.83 855.496 586.995C855.142 587.159 854.824 587.392 854.561 587.68C854.297 587.967 854.093 588.304 853.959 588.671L806.459 719.296C806.326 719.662 806.266 720.051 806.282 720.441C806.299 720.831 806.393 721.213 806.557 721.567C806.722 721.921 806.955 722.238 807.242 722.502C807.53 722.765 807.867 722.97 808.233 723.103C808.56 723.22 808.903 723.28 809.25 723.281C809.859 723.282 810.454 723.094 810.953 722.745C811.452 722.396 811.832 721.902 812.041 721.329L859.541 590.704C859.674 590.338 859.735 589.949 859.718 589.559C859.701 589.169 859.608 588.787 859.443 588.433C859.278 588.079 859.045 587.762 858.758 587.498C858.47 587.235 858.133 587.03 857.767 586.897Z" fill="#323C4B"/>
</svg>
