<svg width="50" height="50" viewBox="0 0 50 50" fill="none" xmlns="http://www.w3.org/2000/svg">
<path d="M15.4687 43.75C14.6701 43.75 13.9757 43.4549 13.3854 42.8646C12.7951 42.2743 12.5 41.5799 12.5 40.7813C12.5 40.4688 12.5785 40.1125 12.7354 39.7125C12.8924 39.3125 13.0917 38.9917 13.3333 38.75L14.5833 37.5H8.33333C7.18749 37.5 6.20624 37.0917 5.38958 36.275C4.57291 35.4583 4.16527 34.4778 4.16666 33.3333V10.4167C4.16666 9.27084 4.57499 8.28959 5.39166 7.47292C6.20833 6.65625 7.18888 6.24861 8.33333 6.25H41.6667C42.8125 6.25 43.7937 6.65834 44.6104 7.475C45.4271 8.29167 45.8347 9.27223 45.8333 10.4167V33.3333C45.8333 34.4792 45.425 35.4604 44.6083 36.2771C43.7917 37.0938 42.8111 37.5014 41.6667 37.5H35.4167L36.6667 38.75C36.9097 38.9931 37.1097 39.3056 37.2667 39.6875C37.4236 40.0694 37.5014 40.434 37.5 40.7813C37.5 41.5799 37.2049 42.2743 36.6146 42.8646C36.0243 43.4549 35.3299 43.75 34.5312 43.75H15.4687ZM8.33333 33.3333H41.6667V10.4167H8.33333V33.3333Z" fill="white"/>
</svg>
