<svg width="650" height="575" viewBox="0 0 650 575" fill="none" xmlns="http://www.w3.org/2000/svg">
<path opacity="0.1" fill-rule="evenodd" clip-rule="evenodd" d="M91.7249 575H94.1318L1.65566 505.02L159.236 0H157.746L0 505.582L0.425137 505.907L91.7249 575ZM177.83 0L22.1139 499.172L22.7231 499.615L122.315 575H125.766L24.5086 498.357L179.963 0H177.83ZM197.699 0L44.2277 491.166L45.0211 491.771L155.16 575H159.652L47.3423 490.135L200.489 0H197.699ZM217.787 0L66.3416 484.761L67.2907 485.498L185.717 575H191.294L70.1808 483.462L221.215 0H217.787ZM237.874 0L88.4554 478.329L89.6169 479.198L216.349 575H222.952L93.0433 476.798L241.97 0H237.874ZM257.939 0L110.569 471.913L111.886 472.915L246.907 575H254.561L115.853 470.129L262.671 0H257.939ZM277.221 0L132.683 462.964L134.184 464.084L280.863 575H289.557L138.687 460.915L282.601 0H277.221ZM297.31 0L154.797 456.53L311.432 575H321.215L161.549 454.232L303.339 0H297.31ZM317.382 0L176.911 450.116L341.99 575H352.803L184.383 447.581L324.076 0H317.382ZM337.467 0L199.025 443.672L372.569 575H384.449L207.245 440.899L344.803 0H337.467ZM357.546 0L221.139 437.264L223.36 438.96L403.09 575H416.007L230.05 434.244L365.508 0H357.546ZM377.615 0L243.252 430.845L433.643 575H447.606L252.913 427.585L386.239 0H377.615ZM395.548 0L262.909 424.416L462.236 575H477.265L273.304 420.924L404.857 0H395.548ZM414.827 0L285.023 415.453L496.171 575H512.274L296.138 411.679L424.787 0H414.827ZM434.913 0L307.137 409.018L526.745 575H543.872L318.986 405.034L445.515 0H434.913ZM454.985 0L329.251 402.604L557.273 575H575.472L341.834 398.358L466.242 0H454.985ZM475.072 0L351.365 396.199L587.804 575H607.061L364.668 391.686L486.959 0H475.072ZM495.127 0L373.479 389.767L618.332 575H638.635L387.487 385.02L507.662 0H495.127ZM515.19 0L395.592 383.362L648.822 575H650V559.73L410.335 378.376L528.391 0H515.19ZM535.25 0L417.706 376.942L650 552.811V535.851L433.178 371.705L549.092 0H535.25ZM555.292 0L439.82 370.504L650 529.725V511.967L455.998 365.017L565.75 12.9706H650V0H555.292ZM650 16.526H569.405L461.934 361.521L650 504.077V485.535L478.841 355.81L579.861 31.5354H650V16.526ZM650 37.0089H583.08L484.048 355.103L650 480.98V461.608L501.679 349.123L593.967 52.6664H650V37.0089ZM650 57.5014H596.744L506.162 348.697L650 457.881V437.721L524.518 342.48L608.062 73.8018H650V57.5014ZM650 77.9844H610.413L528.276 342.283L650 434.763V413.811L547.328 335.813L622.192 94.9241H650V77.9844ZM650 98.4673H624.543L550.389 335.859L650 411.155V389.392L570.272 329.138L636.843 116.065H650V98.4673ZM650 118.96H638.235L572.503 329.443L650 388.062V365.491L593.129 322.465L650 140.256V118.96ZM650 145.45L594.617 323.02L650 364.953V341.579L615.949 315.801L650 206.592V145.45ZM650 207.235L616.731 314.066L650 339.275V271.254L638.953 306.71L638.768 306.576L650 270.545V207.235Z" fill="white"/>
</svg>
