<svg width="50" height="50" viewBox="0 0 50 50" fill="none" xmlns="http://www.w3.org/2000/svg">
<path d="M43.6875 12.92L26.5 3.51575C26.0408 3.26201 25.5247 3.12891 25 3.12891C24.4753 3.12891 23.9592 3.26201 23.5 3.51575L6.3125 12.924C5.82166 13.1925 5.41192 13.5879 5.12608 14.0689C4.84023 14.5499 4.68877 15.0988 4.6875 15.6583V34.338C4.68877 34.8975 4.84023 35.4464 5.12608 35.9274C5.41192 36.4084 5.82166 36.8038 6.3125 37.0724L23.5 46.4806C23.9592 46.7343 24.4753 46.8674 25 46.8674C25.5247 46.8674 26.0408 46.7343 26.5 46.4806L43.6875 37.0724C44.1783 36.8038 44.5881 36.4084 44.8739 35.9274C45.1598 35.4464 45.3112 34.8975 45.3125 34.338V15.6603C45.3123 15.0998 45.1613 14.5496 44.8754 14.0675C44.5895 13.5854 44.1792 13.1891 43.6875 12.92ZM25 6.25013L40.6914 14.8439L25 23.4376L9.30859 14.8439L25 6.25013ZM7.8125 17.5783L23.4375 26.129V42.8849L7.8125 34.34V17.5783ZM26.5625 42.8849V26.1368L42.1875 17.5783V34.3322L26.5625 42.8849Z" fill="#7977F0"/>
</svg>
