<svg width="50" height="50" viewBox="0 0 50 50" fill="none" xmlns="http://www.w3.org/2000/svg">
<path d="M20.8333 39.4437H29.1667C29.4429 39.4437 29.7079 39.3339 29.9032 39.1386C30.0986 38.9432 30.2083 38.6783 30.2083 38.402C30.2083 38.1258 30.0986 37.8608 29.9032 37.6654C29.7079 37.4701 29.4429 37.3604 29.1667 37.3604H20.8333C20.5571 37.3604 20.2921 37.4701 20.0968 37.6654C19.9014 37.8608 19.7917 38.1258 19.7917 38.402C19.7917 38.6783 19.9014 38.9432 20.0968 39.1386C20.2921 39.3339 20.5571 39.4437 20.8333 39.4437Z" fill="#F9D96A"/>
<path d="M34.8479 45.702H15.1521C13.845 45.624 12.6216 45.0331 11.7481 44.0577C10.8745 43.0823 10.4215 41.8014 10.4875 40.4937V9.50619C10.4215 8.19847 10.8745 6.91757 11.7481 5.94218C12.6216 4.96679 13.845 4.37583 15.1521 4.29785H34.8479C36.155 4.37583 37.3784 4.96679 38.2519 5.94218C39.1255 6.91757 39.5785 8.19847 39.5125 9.50619V40.4937C39.5785 41.8014 39.1255 43.0823 38.2519 44.0577C37.3784 45.0331 36.155 45.624 34.8479 45.702ZM15.1521 6.38118C14.3985 6.46078 13.7062 6.83258 13.2236 7.41681C12.741 8.00104 12.5067 8.75115 12.5708 9.50619V40.4937C12.5067 41.2487 12.741 41.9988 13.2236 42.5831C13.7062 43.1673 14.3985 43.5391 15.1521 43.6187H34.8479C35.6015 43.5391 36.2938 43.1673 36.7764 42.5831C37.259 41.9988 37.4933 41.2487 37.4292 40.4937V9.50619C37.4933 8.75115 37.259 8.00104 36.7764 7.41681C36.2938 6.83258 35.6015 6.46078 34.8479 6.38118H15.1521Z" fill="#F9D96A"/>
</svg>
